<?xml version="1.0" encoding="utf-8"?>
<!-- Generator: Adobe Illustrator 25.2.0, SVG Export Plug-In . SVG Version: 6.00 Build 0)  -->
<svg version="1.1" id="Layer_1" xmlns="http://www.w3.org/2000/svg" xmlns:xlink="http://www.w3.org/1999/xlink" x="0px" y="0px"
	 viewBox="0 0 1080 1080" style="enable-background:new 0 0 1080 1080;" xml:space="preserve">
<style type="text/css">
	.st0{fill:#46943B;}
	.st1{fill:#FFFFFF;}
	.st2{fill:#114146;}
</style>
<path class="st0" d="M527.68,491.32l-0.21-0.07c-48.26-22.27-117.76-18.74-101.44-98.7c15.64,3.83,44.83,15.03,70.19,47.33
	c-7.02-23.5-27.55-45.89-42.62-59.86C542.86,399.48,542,452.69,527.68,491.32z"/>
<path class="st0" d="M576.19,534.94c0,0-96.48-123,50.18-154.94c-0.01,0.01-0.01,0.01-0.02,0.02
	c-15.07,13.98-35.6,36.37-42.62,59.86c25.2-32.1,54.19-43.36,69.89-47.26C673.62,495.24,564.7,443.93,576.19,534.94z"/>
<g>
	<path class="st2" d="M258.71,625.45v-59.33h20.33v102.86h-19.29l-44.02-60.29c-1.68-2.3-5.32-1.11-5.32,1.73v58.56h-20.33V566.12
		h20.33l42.94,61.02C255.01,629.49,258.71,628.32,258.71,625.45z"/>
	<path class="st2" d="M348.97,631.69v-41.95h19.14v79.24h-17.94l0-9.87c-6.43,5.83-16.6,11.36-29.3,11.36
		c-18.69,0-27.06-11.66-27.06-29.9v-50.83h19.29v45.9c0,10.17,5.08,16.15,16,16.15c0.08,0,0.15,0,0.23,0
		C340.24,651.72,348.97,642.62,348.97,631.69z"/>
	<path class="st2" d="M416.54,670.62c-14.05,0-25.27-5.53-25.27-25.57v-34.38c0-2.23-1.81-4.05-4.05-4.05h-7.91v-4.78l26.91-26.91
		h4.34v9.64c0,2.85,2.31,5.16,5.16,5.16h21.3v16.9h-21.3c-2.85,0-5.16,2.31-5.16,5.16v30.72c0,7.92,4.34,10.61,11.21,10.61
		c6.13,0,11.96-1.79,15.4-3.59v16.15C432.69,668.38,425.81,670.62,416.54,670.62z"/>
	<path class="st2" d="M467.06,589.74l0,4.52c0,2.2,2.51,3.46,4.27,2.13c5.82-4.43,13.5-8.14,21.75-8.14c2.99,0,5.83,0.6,8.37,1.79
		v20.48c-3.59-2.09-8.82-3.59-14.8-3.59c-0.07,0-0.14,0-0.21,0c-10.13,0.08-18.18,8.57-18.18,18.69l0,43.35h-19.29v-79.24H467.06z"
		/>
	<path class="st2" d="M508.34,686.77v-18.24c2.99,2.84,10.02,7.92,19.29,7.92c5.68,0,10.17-2.69,12.41-7.03l0,0
		c1.14-2.37,1.15-5.12,0.04-7.49l-33.68-72.19h21.53l22.72,54.57l21.23-54.57h21.38l-36.33,83.13
		c-6.58,15.4-16.75,21.23-28.26,21.23C519.4,694.1,512.23,690.06,508.34,686.77z"/>
	<path class="st2" d="M613.29,667.49v25.12h-9.57V589.74h8.97v4.14c0,1.68,1.89,2.62,3.26,1.66c5.41-3.81,13.31-7.3,23.2-7.3
		c19.59,0,34.69,13.6,34.69,39.02c0,28.26-18.54,43.21-41.71,43.21C624.21,670.47,618.52,669.13,613.29,667.49z M613.29,620.97v37.4
		c5.08,1.79,10.61,3.44,18.54,3.44c18.84,0,32.14-11.66,32.14-34.09c0-19.29-10.47-30.8-26.91-30.8c-0.11,0-0.21,0-0.32,0
		C623.69,597.04,613.29,607.92,613.29,620.97z"/>
	<path class="st2" d="M696.05,624.85v44.13h-9.57V566.12l9.57-1.94v35.28c0,0,0,0,0,0c6.88-5.38,16.74-11.21,29.9-11.21
		c16.45,0,27.81,9.57,27.81,29.9v50.83h-9.42v-49.19c0-15.4-8.82-22.43-21.23-22.43c-0.11,0-0.22,0-0.32,0
		C707.9,597.52,696.05,609.96,696.05,624.85z"/>
	<path class="st2" d="M764.02,687.82V677.8c2.69,3.14,8.82,7.48,16.15,7.48c6.13,0,10.91-3.89,13.75-10.17l0,0
		c2.19-4.85,2.2-10.4,0.03-15.26l-31.28-70.11h10.62l28.56,67.13l28.56-67.13h10.47l-38.13,86.57
		c-5.38,12.41-12.41,17.79-22.13,17.79C772.69,694.1,766.71,690.36,764.02,687.82z"/>
	<path class="st2" d="M863.74,564.17v104.8h-9.57V566.12L863.74,564.17z"/>
	<path class="st2" d="M888.77,564.17v104.8h-9.57V566.12L888.77,564.17z"/>
</g>
</svg>
